<svg xmlns="http://www.w3.org/2000/svg" width="300" height="300" viewBox="0 0 300 300">
  <!-- Конфетти -->
  <rect x="30" y="40" width="15" height="15" fill="#FF0000" transform="rotate(30 30 40)"/>
  <rect x="80" y="20" width="10" height="10" fill="#00FF00" transform="rotate(45 80 20)"/>
  <rect x="150" y="50" width="20" height="20" fill="#0000FF" transform="rotate(60 150 50)"/>
  <rect x="200" y="30" width="12" height="12" fill="#FFFF00" transform="rotate(20 200 30)"/>
  <rect x="250" y="70" width="18" height="18" fill="#FF00FF" transform="rotate(75 250 70)"/>
  
  <rect x="40" y="100" width="14" height="14" fill="#00FFFF" transform="rotate(10 40 100)"/>
  <rect x="100" y="120" width="16" height="16" fill="#FF9900" transform="rotate(50 100 120)"/>
  <rect x="180" y="90" width="8" height="8" fill="#9900FF" transform="rotate(40 180 90)"/>
  <rect x="230" y="130" width="22" height="22" fill="#99FF00" transform="rotate(65 230 130)"/>
  
  <rect x="60" y="180" width="13" height="13" fill="#FF0099" transform="rotate(25 60 180)"/>
  <rect x="120" y="200" width="17" height="17" fill="#00FF99" transform="rotate(55 120 200)"/>
  <rect x="190" y="170" width="11" height="11" fill="#9900FF" transform="rotate(15 190 170)"/>
  <rect x="260" y="210" width="19" height="19" fill="#FFFF99" transform="rotate(80 260 210)"/>
  
  <circle cx="50" cy="240" r="10" fill="#FF6600"/>
  <circle cx="110" cy="260" r="8" fill="#66FF00"/>
  <circle cx="170" cy="230" r="12" fill="#0066FF"/>
  <circle cx="240" cy="250" r="9" fill="#FF0066"/>
  
  <circle cx="20" cy="70" r="7" fill="#FF9966"/>
  <circle cx="70" cy="50" r="11" fill="#66FF99"/>
  <circle cx="130" cy="80" r="9" fill="#9966FF"/>
  <circle cx="280" cy="100" r="10" fill="#FF6699"/>
  
  <circle cx="30" cy="150" r="8" fill="#99FF66"/>
  <circle cx="90" cy="170" r="10" fill="#6699FF"/>
  <circle cx="270" cy="160" r="7" fill="#FF9966"/>
</svg> 